<svg xmlns="http://www.w3.org/2000/svg" xmlns:xlink="http://www.w3.org/1999/xlink" width="140" zoomAndPan="magnify" viewBox="0 0 104.88 30.000001" height="40" preserveAspectRatio="xMidYMid meet" version="1.2"><defs/><g id="f1f2e1332a"><g style="fill:#1d794c;fill-opacity:1;"><g transform="translate(14.421952, 21.46761)"><path style="stroke:none" d="M 24.210938 -9.023438 C 24.210938 -7.171875 23.597656 -5.328125 22.375 -3.496094 C 21.230469 -1.777344 19.789062 -0.363281 18.046875 0.75 C 16.199219 1.933594 14.339844 2.527344 12.472656 2.527344 C 10.988281 2.527344 9.695312 2.25 8.59375 1.699219 C 7.945312 1.375 7.394531 0.964844 6.949219 0.46875 C 6.472656 -0.0585938 6.125 -0.664062 5.90625 -1.347656 L 8.113281 -2.050781 L 9.902344 -0.582031 C 9.125 0.367188 8.242188 1.09375 7.257812 1.597656 C 6.226562 2.125 5.144531 2.386719 4.011719 2.386719 C 2.417969 2.386719 1.082031 1.960938 0 1.109375 C -0.636719 0.605469 -1.117188 -0.015625 -1.4375 -0.757812 C -1.726562 -1.433594 -1.875 -2.183594 -1.875 -3.007812 C -1.875 -3.765625 -1.753906 -4.535156 -1.515625 -5.316406 L -0.222656 -9.847656 L 2.003906 -9.210938 L -0.242188 -9.773438 C -0.242188 -9.777344 -0.242188 -9.78125 -0.238281 -9.78125 C -0.242188 -9.773438 -0.242188 -9.765625 -0.246094 -9.753906 C -0.257812 -9.675781 -0.265625 -9.585938 -0.265625 -9.488281 C -0.265625 -9.148438 -0.160156 -8.832031 0.0507812 -8.539062 C 0.0703125 -8.511719 0.0859375 -8.488281 0.101562 -8.472656 C 0.0976562 -8.480469 0.0859375 -8.488281 0.0703125 -8.503906 C -0.683594 -9.15625 -1.058594 -9.910156 -1.058594 -10.773438 L 1.257812 -10.773438 L -1.050781 -10.605469 C -1.09375 -11.179688 -0.964844 -11.730469 -0.667969 -12.253906 C -0.476562 -12.589844 -0.214844 -12.910156 0.117188 -13.203125 C 0.636719 -13.667969 1.304688 -14.03125 2.121094 -14.292969 C 2.855469 -14.53125 3.664062 -14.652344 4.546875 -14.652344 C 6.164062 -14.652344 7.480469 -14.210938 8.5 -13.328125 C 9.050781 -12.847656 9.472656 -12.289062 9.757812 -11.644531 C 10.035156 -11.015625 10.175781 -10.335938 10.175781 -9.605469 C 10.175781 -9.023438 10.082031 -8.417969 9.890625 -7.78125 L 8.699219 -3.8125 C 8.691406 -3.773438 8.683594 -3.746094 8.679688 -3.726562 C 8.695312 -3.808594 8.707031 -3.910156 8.707031 -4.035156 C 8.707031 -4.210938 8.671875 -4.394531 8.601562 -4.578125 C 8.503906 -4.839844 8.351562 -5.066406 8.144531 -5.261719 C 7.960938 -5.433594 7.753906 -5.558594 7.519531 -5.636719 C 7.355469 -5.695312 7.195312 -5.722656 7.042969 -5.722656 C 6.875 -5.722656 6.714844 -5.6875 6.550781 -5.621094 C 6.382812 -5.550781 6.234375 -5.457031 6.113281 -5.335938 C 6.085938 -5.308594 6.066406 -5.28125 6.046875 -5.261719 L 6.046875 -5.257812 C 6.050781 -5.261719 6.054688 -5.269531 6.058594 -5.277344 C 6.097656 -5.34375 6.144531 -5.433594 6.195312 -5.550781 L 8.324219 -4.640625 L 6.097656 -5.285156 L 7.425781 -9.855469 L 9.652344 -9.210938 L 7.40625 -9.773438 C 7.40625 -9.777344 7.40625 -9.78125 7.40625 -9.78125 C 7.40625 -9.773438 7.402344 -9.765625 7.402344 -9.753906 C 7.390625 -9.675781 7.382812 -9.585938 7.382812 -9.488281 C 7.382812 -9.148438 7.488281 -8.832031 7.695312 -8.539062 C 7.71875 -8.511719 7.734375 -8.488281 7.75 -8.472656 C 7.742188 -8.480469 7.734375 -8.488281 7.714844 -8.503906 C 6.964844 -9.15625 6.589844 -9.910156 6.589844 -10.773438 L 8.90625 -10.773438 L 6.59375 -10.605469 C 6.554688 -11.179688 6.683594 -11.730469 6.976562 -12.253906 C 7.171875 -12.589844 7.433594 -12.910156 7.761719 -13.203125 C 8.285156 -13.667969 8.953125 -14.03125 9.769531 -14.292969 C 10.503906 -14.53125 11.3125 -14.652344 12.195312 -14.652344 C 13.828125 -14.652344 15.148438 -14.214844 16.15625 -13.339844 C 16.710938 -12.863281 17.128906 -12.296875 17.414062 -11.644531 C 17.6875 -11.019531 17.820312 -10.339844 17.820312 -9.605469 C 17.820312 -9.070312 17.730469 -8.476562 17.550781 -7.824219 L 17.542969 -7.796875 L 15.992188 -2.683594 L 15.953125 -2.589844 C 16.035156 -2.789062 16.074219 -2.957031 16.074219 -3.101562 C 16.074219 -3.332031 16.023438 -3.558594 15.921875 -3.785156 C 15.800781 -4.054688 15.621094 -4.28125 15.386719 -4.464844 C 15.21875 -4.59375 15.035156 -4.6875 14.839844 -4.742188 C 14.734375 -4.773438 14.636719 -4.789062 14.550781 -4.789062 C 14.4375 -4.789062 14.347656 -4.777344 14.285156 -4.753906 C 14.324219 -4.765625 14.386719 -4.800781 14.472656 -4.859375 C 14.71875 -5.023438 14.988281 -5.289062 15.277344 -5.65625 C 15.566406 -6.03125 15.808594 -6.488281 16.007812 -7.035156 L 18.1875 -6.25 L 16.660156 -4.503906 C 15.800781 -5.253906 15.175781 -6.035156 14.785156 -6.84375 C 14.371094 -7.695312 14.167969 -8.574219 14.167969 -9.488281 C 14.167969 -10.816406 14.550781 -11.96875 15.316406 -12.941406 C 15.773438 -13.519531 16.335938 -13.957031 17.003906 -14.25 C 17.617188 -14.515625 18.289062 -14.652344 19.027344 -14.652344 C 19.757812 -14.652344 20.441406 -14.515625 21.074219 -14.238281 C 21.71875 -13.960938 22.289062 -13.554688 22.78125 -13.019531 C 23.734375 -11.984375 24.210938 -10.652344 24.210938 -9.023438 Z M 19.574219 -9.023438 C 19.574219 -9.445312 19.507812 -9.730469 19.371094 -9.878906 C 19.324219 -9.933594 19.277344 -9.96875 19.238281 -9.984375 C 19.1875 -10.007812 19.117188 -10.015625 19.027344 -10.015625 C 18.964844 -10.015625 18.914062 -10.011719 18.875 -10.003906 C 18.867188 -10.003906 18.863281 -10.003906 18.855469 -10 C 18.859375 -10 18.863281 -10.003906 18.867188 -10.003906 C 18.90625 -10.023438 18.933594 -10.042969 18.957031 -10.070312 C 18.851562 -9.941406 18.800781 -9.746094 18.800781 -9.488281 C 18.800781 -9.285156 18.851562 -9.078125 18.953125 -8.867188 C 19.074219 -8.621094 19.324219 -8.332031 19.710938 -7.992188 L 20.902344 -6.953125 L 20.367188 -5.464844 C 20.003906 -4.453125 19.523438 -3.566406 18.929688 -2.804688 C 18.328125 -2.039062 17.695312 -1.433594 17.027344 -0.992188 C 16.179688 -0.433594 15.355469 -0.152344 14.550781 -0.152344 C 13.769531 -0.152344 13.101562 -0.371094 12.542969 -0.804688 C 12.171875 -1.09375 11.886719 -1.453125 11.695312 -1.882812 C 11.523438 -2.261719 11.4375 -2.667969 11.4375 -3.101562 C 11.4375 -3.554688 11.507812 -3.957031 11.652344 -4.3125 L 13.804688 -3.449219 L 11.585938 -4.125 L 13.101562 -9.113281 L 15.316406 -8.441406 L 13.085938 -9.054688 C 13.152344 -9.304688 13.1875 -9.488281 13.1875 -9.605469 C 13.1875 -9.695312 13.179688 -9.757812 13.164062 -9.792969 C 13.160156 -9.800781 13.148438 -9.816406 13.125 -9.835938 C 13.085938 -9.871094 13.019531 -9.902344 12.921875 -9.929688 C 12.734375 -9.988281 12.492188 -10.015625 12.195312 -10.015625 C 11.800781 -10.015625 11.464844 -9.972656 11.191406 -9.882812 C 11.066406 -9.84375 10.964844 -9.800781 10.882812 -9.761719 C 10.863281 -9.75 10.84375 -9.738281 10.832031 -9.730469 L 10.828125 -9.730469 C 10.832031 -9.730469 10.835938 -9.734375 10.84375 -9.738281 C 10.894531 -9.785156 10.949219 -9.859375 11.011719 -9.96875 C 11.175781 -10.257812 11.242188 -10.578125 11.21875 -10.9375 L 11.222656 -10.855469 L 11.222656 -10.773438 C 11.222656 -11.152344 11.128906 -11.492188 10.933594 -11.785156 C 10.875 -11.878906 10.828125 -11.9375 10.796875 -11.96875 C 11.066406 -11.726562 11.289062 -11.484375 11.46875 -11.234375 C 11.832031 -10.722656 12.015625 -10.140625 12.015625 -9.488281 C 12.015625 -9.238281 11.976562 -8.957031 11.902344 -8.648438 L 11.890625 -8.605469 L 10.507812 -3.855469 L 10.453125 -3.726562 C 10.148438 -3.019531 9.796875 -2.460938 9.390625 -2.058594 C 9.074219 -1.742188 8.714844 -1.5 8.308594 -1.332031 C 7.90625 -1.167969 7.484375 -1.085938 7.042969 -1.085938 C 6.683594 -1.085938 6.34375 -1.140625 6.019531 -1.253906 C 5.628906 -1.386719 5.28125 -1.59375 4.980469 -1.875 C 4.660156 -2.175781 4.417969 -2.535156 4.261719 -2.953125 C 4.136719 -3.292969 4.070312 -3.652344 4.070312 -4.035156 C 4.070312 -4.328125 4.136719 -4.695312 4.261719 -5.140625 L 5.449219 -9.097656 C 5.511719 -9.304688 5.539062 -9.472656 5.539062 -9.605469 C 5.539062 -9.683594 5.535156 -9.734375 5.519531 -9.765625 C 5.515625 -9.777344 5.496094 -9.796875 5.464844 -9.824219 C 5.417969 -9.867188 5.347656 -9.902344 5.25 -9.933594 C 5.066406 -9.988281 4.832031 -10.015625 4.546875 -10.015625 C 4.152344 -10.015625 3.820312 -9.972656 3.546875 -9.882812 C 3.417969 -9.84375 3.316406 -9.800781 3.234375 -9.761719 C 3.214844 -9.75 3.195312 -9.738281 3.183594 -9.730469 C 3.1875 -9.730469 3.191406 -9.734375 3.195312 -9.738281 C 3.246094 -9.785156 3.300781 -9.859375 3.363281 -9.96875 C 3.527344 -10.257812 3.597656 -10.578125 3.570312 -10.9375 L 3.578125 -10.855469 L 3.578125 -10.773438 C 3.578125 -11.152344 3.480469 -11.492188 3.289062 -11.785156 C 3.226562 -11.878906 3.179688 -11.9375 3.148438 -11.96875 C 3.417969 -11.726562 3.640625 -11.484375 3.820312 -11.234375 C 4.1875 -10.722656 4.367188 -10.140625 4.367188 -9.488281 C 4.367188 -9.238281 4.332031 -8.957031 4.253906 -8.648438 L 4.242188 -8.609375 L 2.914062 -3.960938 C 2.8125 -3.625 2.761719 -3.304688 2.761719 -3.007812 C 2.761719 -2.746094 2.796875 -2.585938 2.867188 -2.53125 C 3.109375 -2.34375 3.488281 -2.246094 4.011719 -2.246094 C 4.398438 -2.246094 4.777344 -2.339844 5.148438 -2.53125 C 5.5625 -2.742188 5.953125 -3.070312 6.324219 -3.523438 L 9.027344 -6.8125 L 10.320312 -2.757812 C 10.355469 -2.644531 10.472656 -2.542969 10.664062 -2.445312 C 11.117188 -2.21875 11.71875 -2.105469 12.472656 -2.105469 C 13.4375 -2.105469 14.460938 -2.457031 15.550781 -3.152344 C 16.746094 -3.917969 17.734375 -4.890625 18.519531 -6.066406 C 19.222656 -7.121094 19.574219 -8.109375 19.574219 -9.023438 Z M 19.574219 -9.023438 "/></g></g><g style="fill:#1d794c;fill-opacity:1;"><g transform="translate(36.034582, 21.46761)"><path style="stroke:none" d="M 9.023438 -14.652344 C 11.707031 -14.652344 13.765625 -14.039062 15.203125 -12.816406 C 15.96875 -12.160156 16.546875 -11.394531 16.941406 -10.519531 C 17.324219 -9.65625 17.519531 -8.714844 17.519531 -7.695312 C 17.519531 -7.0625 17.4375 -6.378906 17.28125 -5.640625 C 16.894531 -3.980469 16.179688 -2.53125 15.128906 -1.289062 C 14.09375 -0.0625 12.824219 0.882812 11.328125 1.546875 C 9.855469 2.199219 8.269531 2.527344 6.574219 2.527344 C 3.855469 2.527344 1.761719 1.917969 0.300781 0.695312 C -0.492188 0.0351562 -1.085938 -0.742188 -1.492188 -1.636719 C -1.886719 -2.515625 -2.085938 -3.476562 -2.085938 -4.523438 C -2.085938 -5.164062 -2.003906 -5.859375 -1.847656 -6.609375 L -1.832031 -6.679688 C -1.445312 -8.265625 -0.710938 -9.667969 0.375 -10.894531 C 1.433594 -12.09375 2.722656 -13.023438 4.246094 -13.679688 C 5.742188 -14.328125 7.335938 -14.652344 9.023438 -14.652344 Z M 9.023438 -10.015625 C 7.976562 -10.015625 6.996094 -9.820312 6.082031 -9.425781 C 5.195312 -9.042969 4.449219 -8.507812 3.847656 -7.824219 C 3.265625 -7.171875 2.875 -6.425781 2.671875 -5.582031 L 0.417969 -6.132812 L 2.6875 -5.65625 C 2.597656 -5.222656 2.550781 -4.84375 2.550781 -4.523438 C 2.550781 -4.140625 2.609375 -3.8125 2.734375 -3.542969 C 2.84375 -3.292969 3.023438 -3.066406 3.269531 -2.863281 C 3.523438 -2.648438 3.890625 -2.476562 4.359375 -2.351562 C 4.960938 -2.1875 5.699219 -2.105469 6.574219 -2.105469 C 7.617188 -2.105469 8.574219 -2.300781 9.445312 -2.6875 C 10.296875 -3.066406 11.011719 -3.597656 11.589844 -4.28125 C 12.15625 -4.953125 12.542969 -5.734375 12.75 -6.621094 C 12.839844 -7.035156 12.882812 -7.394531 12.882812 -7.695312 C 12.882812 -8.054688 12.828125 -8.367188 12.710938 -8.625 C 12.601562 -8.867188 12.429688 -9.085938 12.195312 -9.289062 C 11.953125 -9.492188 11.613281 -9.65625 11.164062 -9.777344 C 10.585938 -9.9375 9.871094 -10.015625 9.023438 -10.015625 Z M 8.953125 -7.941406 C 9.191406 -7.941406 9.417969 -7.988281 9.625 -8.078125 C 9.75 -8.132812 9.855469 -8.195312 9.941406 -8.269531 C 9.960938 -8.285156 9.976562 -8.296875 9.988281 -8.308594 C 9.988281 -8.3125 9.992188 -8.3125 9.992188 -8.3125 C 9.988281 -8.3125 9.988281 -8.308594 9.984375 -8.304688 C 9.953125 -8.269531 9.917969 -8.21875 9.878906 -8.152344 C 9.621094 -7.742188 9.273438 -6.828125 8.835938 -5.402344 C 8.605469 -4.65625 8.4375 -4.03125 8.324219 -3.527344 C 8.238281 -3.121094 8.191406 -2.839844 8.191406 -2.679688 C 8.191406 -2.671875 8.191406 -2.664062 8.191406 -2.660156 C 8.191406 -2.660156 8.191406 -2.660156 8.191406 -2.664062 C 8.1875 -2.699219 8.183594 -2.742188 8.171875 -2.789062 C 8.105469 -3.070312 7.957031 -3.332031 7.734375 -3.574219 C 7.550781 -3.769531 7.332031 -3.917969 7.082031 -4.019531 C 6.882812 -4.097656 6.683594 -4.136719 6.480469 -4.136719 L 6.589844 -4.136719 L 6.703125 -4.125 C 6.429688 -4.152344 6.167969 -4.117188 5.917969 -4.023438 C 5.757812 -3.964844 5.617188 -3.886719 5.503906 -3.789062 C 5.460938 -3.757812 5.433594 -3.730469 5.417969 -3.710938 C 5.4375 -3.738281 5.46875 -3.78125 5.503906 -3.839844 C 5.757812 -4.273438 6.125 -5.257812 6.597656 -6.792969 C 6.824219 -7.492188 6.988281 -8.082031 7.09375 -8.558594 C 7.175781 -8.941406 7.21875 -9.222656 7.21875 -9.394531 C 7.21875 -9.40625 7.21875 -9.410156 7.21875 -9.417969 C 7.21875 -9.417969 7.21875 -9.414062 7.21875 -9.410156 C 7.222656 -9.378906 7.226562 -9.34375 7.238281 -9.304688 C 7.292969 -9.0625 7.40625 -8.832031 7.585938 -8.609375 C 7.773438 -8.378906 8.003906 -8.203125 8.28125 -8.085938 C 8.503906 -7.988281 8.726562 -7.941406 8.953125 -7.941406 Z M 8.953125 -12.574219 C 9.367188 -12.574219 9.753906 -12.496094 10.121094 -12.339844 C 10.539062 -12.15625 10.894531 -11.890625 11.183594 -11.535156 C 11.628906 -10.984375 11.851562 -10.269531 11.851562 -9.394531 C 11.851562 -8.472656 11.578125 -7.148438 11.027344 -5.425781 C 10.445312 -3.539062 9.933594 -2.226562 9.488281 -1.476562 C 9.179688 -0.949219 8.832031 -0.53125 8.457031 -0.21875 C 8.171875 0.015625 7.867188 0.195312 7.539062 0.316406 C 7.125 0.472656 6.699219 0.53125 6.261719 0.488281 L 6.480469 -1.820312 L 6.480469 0.5 C 6.09375 0.5 5.726562 0.429688 5.378906 0.292969 C 4.980469 0.136719 4.636719 -0.0976562 4.34375 -0.414062 C 3.820312 -0.972656 3.558594 -1.730469 3.558594 -2.679688 C 3.558594 -3.566406 3.839844 -4.929688 4.40625 -6.765625 C 4.964844 -8.578125 5.480469 -9.859375 5.953125 -10.613281 C 6.769531 -11.921875 7.773438 -12.574219 8.953125 -12.574219 Z M 8.953125 -12.574219 "/></g></g><g style="fill:#1d794c;fill-opacity:1;"><g transform="translate(51.328956, 21.46761)"><path style="stroke:none" d="M 12.402344 -14.652344 C 13.320312 -14.652344 14.175781 -14.429688 14.972656 -13.980469 C 15.742188 -13.550781 16.359375 -12.984375 16.820312 -12.28125 C 17.332031 -11.503906 17.589844 -10.675781 17.589844 -9.792969 C 17.589844 -8.679688 17.265625 -7.703125 16.625 -6.859375 C 16.113281 -6.191406 15.371094 -5.570312 14.394531 -4.996094 L 9.460938 -2.066406 L 8.277344 -4.058594 L 10.015625 -5.589844 C 10.058594 -5.539062 10.097656 -5.5 10.132812 -5.46875 L 10.128906 -5.46875 C 10 -5.542969 9.839844 -5.582031 9.652344 -5.582031 C 9.523438 -5.582031 9.398438 -5.554688 9.273438 -5.503906 C 9.167969 -5.460938 9.085938 -5.40625 9.015625 -5.34375 C 9.191406 -5.507812 9.410156 -5.777344 9.683594 -6.15625 C 9.949219 -6.519531 10.160156 -6.785156 10.308594 -6.957031 C 10.535156 -7.214844 10.789062 -7.425781 11.066406 -7.585938 C 11.476562 -7.820312 11.914062 -7.9375 12.378906 -7.9375 C 13.089844 -7.9375 13.796875 -7.722656 14.5 -7.296875 C 15.152344 -6.90625 15.695312 -6.355469 16.132812 -5.652344 C 16.605469 -4.886719 16.84375 -4.015625 16.84375 -3.03125 C 16.84375 -2.039062 16.585938 -1.121094 16.074219 -0.277344 C 15.570312 0.554688 14.871094 1.210938 13.980469 1.691406 C 13.117188 2.15625 12.140625 2.386719 11.050781 2.386719 C 9.992188 2.386719 9.0625 2.179688 8.261719 1.765625 C 7.53125 1.390625 6.941406 0.941406 6.492188 0.421875 C 6.152344 0.03125 5.824219 -0.417969 5.511719 -0.929688 L 5.488281 -0.96875 L 5.46875 -1.003906 C 5.445312 -1.042969 5.425781 -1.074219 5.414062 -1.09375 C 5.421875 -1.078125 5.441406 -1.054688 5.46875 -1.027344 C 5.5625 -0.917969 5.675781 -0.820312 5.808594 -0.726562 C 6.167969 -0.484375 6.570312 -0.363281 7.019531 -0.363281 C 7.375 -0.363281 7.703125 -0.449219 8.007812 -0.617188 C 8.171875 -0.710938 8.308594 -0.816406 8.425781 -0.941406 C 8.394531 -0.910156 8.316406 -0.800781 8.1875 -0.621094 C 7.660156 0.140625 7.09375 0.777344 6.492188 1.28125 C 5.621094 2.019531 4.542969 2.386719 3.265625 2.386719 C 2.25 2.386719 1.3125 2.195312 0.457031 1.808594 C -0.445312 1.402344 -1.171875 0.839844 -1.726562 0.125 C -2.371094 -0.707031 -2.691406 -1.625 -2.691406 -2.632812 C -2.691406 -3.5625 -2.402344 -4.425781 -1.824219 -5.222656 C -1.367188 -5.855469 -0.726562 -6.433594 0.09375 -6.949219 L 6.113281 -10.628906 L 7.320312 -8.648438 L 5.519531 -7.191406 C 5.4375 -7.292969 5.367188 -7.371094 5.308594 -7.429688 C 5.292969 -7.449219 5.28125 -7.460938 5.269531 -7.46875 C 5.277344 -7.460938 5.289062 -7.453125 5.300781 -7.445312 C 5.496094 -7.308594 5.71875 -7.242188 5.96875 -7.242188 C 6.128906 -7.242188 6.289062 -7.273438 6.445312 -7.339844 C 6.601562 -7.40625 6.738281 -7.496094 6.847656 -7.605469 C 6.78125 -7.539062 6.6875 -7.402344 6.570312 -7.203125 L 6.554688 -7.171875 L 6.535156 -7.140625 C 6.328125 -6.8125 6.144531 -6.546875 5.984375 -6.347656 C 5.742188 -6.054688 5.464844 -5.816406 5.144531 -5.640625 C 4.738281 -5.417969 4.308594 -5.308594 3.847656 -5.308594 C 3.304688 -5.308594 2.785156 -5.40625 2.296875 -5.605469 C 1.8125 -5.804688 1.378906 -6.089844 0.988281 -6.460938 C 0.558594 -6.875 0.234375 -7.355469 0.0234375 -7.914062 C -0.167969 -8.414062 -0.265625 -8.953125 -0.265625 -9.535156 C -0.265625 -10.421875 -0.046875 -11.257812 0.394531 -12.039062 C 0.835938 -12.824219 1.457031 -13.453125 2.253906 -13.925781 C 3.0625 -14.410156 3.972656 -14.652344 4.988281 -14.652344 C 6.421875 -14.652344 7.59375 -14.253906 8.503906 -13.464844 C 9.15625 -12.898438 9.730469 -12.210938 10.226562 -11.402344 C 10.246094 -11.371094 10.269531 -11.339844 10.292969 -11.308594 C 10.296875 -11.300781 10.300781 -11.296875 10.300781 -11.292969 C 10.296875 -11.300781 10.289062 -11.308594 10.28125 -11.320312 C 10.210938 -11.398438 10.125 -11.476562 10.027344 -11.554688 C 9.640625 -11.847656 9.195312 -11.992188 8.695312 -11.992188 C 8.328125 -11.992188 7.992188 -11.90625 7.683594 -11.730469 C 7.542969 -11.652344 7.425781 -11.5625 7.328125 -11.464844 C 7.332031 -11.472656 7.335938 -11.472656 7.335938 -11.476562 C 7.332031 -11.46875 7.324219 -11.460938 7.316406 -11.449219 C 7.464844 -11.664062 7.613281 -11.84375 7.757812 -11.992188 L 9.394531 -10.351562 L 7.558594 -11.765625 C 8.132812 -12.511719 8.707031 -13.117188 9.277344 -13.589844 C 10.140625 -14.296875 11.183594 -14.652344 12.402344 -14.652344 Z M 12.402344 -10.015625 C 12.3125 -10.015625 12.246094 -10.007812 12.203125 -9.996094 C 12.207031 -10 12.214844 -10.003906 12.21875 -10.007812 C 11.921875 -9.761719 11.589844 -9.40625 11.234375 -8.9375 L 11.140625 -8.820312 L 11.035156 -8.714844 C 11.074219 -8.753906 11.109375 -8.792969 11.136719 -8.824219 C 11.136719 -8.828125 11.140625 -8.832031 11.140625 -8.832031 C 11.136719 -8.824219 11.132812 -8.820312 11.125 -8.8125 C 10.976562 -8.597656 10.804688 -8.386719 10.601562 -8.1875 C 10.050781 -7.636719 9.414062 -7.359375 8.695312 -7.359375 C 7.949219 -7.359375 7.308594 -7.667969 6.773438 -8.289062 C 6.625 -8.460938 6.460938 -8.6875 6.28125 -8.972656 C 6.03125 -9.378906 5.757812 -9.710938 5.464844 -9.96875 C 5.472656 -9.957031 5.480469 -9.953125 5.488281 -9.949219 C 5.476562 -9.953125 5.464844 -9.960938 5.441406 -9.964844 C 5.335938 -10 5.183594 -10.015625 4.988281 -10.015625 C 4.824219 -10.015625 4.703125 -9.992188 4.625 -9.949219 C 4.535156 -9.894531 4.472656 -9.832031 4.433594 -9.761719 C 4.390625 -9.6875 4.367188 -9.613281 4.367188 -9.535156 C 4.367188 -9.519531 4.371094 -9.507812 4.371094 -9.503906 C 4.367188 -9.523438 4.359375 -9.546875 4.347656 -9.574219 C 4.316406 -9.664062 4.261719 -9.742188 4.191406 -9.8125 C 4.15625 -9.84375 4.109375 -9.871094 4.046875 -9.898438 C 3.976562 -9.925781 3.910156 -9.941406 3.847656 -9.941406 C 3.511719 -9.941406 3.199219 -9.859375 2.90625 -9.699219 C 2.699219 -9.585938 2.527344 -9.441406 2.386719 -9.273438 C 2.425781 -9.320312 2.5 -9.429688 2.605469 -9.597656 L 4.570312 -8.371094 L 2.566406 -9.539062 C 2.886719 -10.082031 3.222656 -10.53125 3.574219 -10.882812 C 3.894531 -11.203125 4.257812 -11.449219 4.667969 -11.621094 C 5.078125 -11.792969 5.511719 -11.875 5.96875 -11.875 C 6.683594 -11.875 7.339844 -11.667969 7.941406 -11.253906 C 8.324219 -10.988281 8.71875 -10.605469 9.121094 -10.109375 L 10.785156 -8.050781 L 2.5625 -3.027344 C 2.25 -2.832031 2.039062 -2.65625 1.929688 -2.507812 C 1.921875 -2.496094 1.917969 -2.488281 1.914062 -2.480469 C 1.917969 -2.488281 1.917969 -2.496094 1.921875 -2.503906 C 1.9375 -2.546875 1.945312 -2.589844 1.945312 -2.632812 C 1.945312 -2.660156 1.9375 -2.6875 1.929688 -2.714844 C 1.925781 -2.726562 1.921875 -2.730469 1.921875 -2.738281 C 1.921875 -2.730469 1.929688 -2.722656 1.9375 -2.710938 C 2.019531 -2.605469 2.164062 -2.507812 2.363281 -2.414062 C 2.613281 -2.304688 2.914062 -2.246094 3.265625 -2.246094 C 3.378906 -2.246094 3.464844 -2.257812 3.523438 -2.277344 C 3.527344 -2.277344 3.53125 -2.277344 3.535156 -2.277344 C 3.535156 -2.277344 3.53125 -2.277344 3.53125 -2.277344 C 3.523438 -2.273438 3.515625 -2.269531 3.507812 -2.261719 C 3.792969 -2.503906 4.089844 -2.847656 4.402344 -3.292969 C 4.648438 -3.644531 4.855469 -3.910156 5.027344 -4.09375 C 5.246094 -4.328125 5.484375 -4.515625 5.742188 -4.664062 C 6.144531 -4.886719 6.566406 -5 7.019531 -5 C 7.519531 -5 7.980469 -4.855469 8.40625 -4.566406 C 8.605469 -4.429688 8.792969 -4.265625 8.964844 -4.066406 C 9.144531 -3.859375 9.324219 -3.601562 9.5 -3.285156 L 7.484375 -2.144531 L 9.457031 -3.359375 C 9.640625 -3.0625 9.816406 -2.816406 9.992188 -2.613281 C 10.054688 -2.542969 10.1875 -2.457031 10.390625 -2.351562 C 10.523438 -2.28125 10.742188 -2.246094 11.050781 -2.246094 C 11.363281 -2.246094 11.605469 -2.296875 11.785156 -2.390625 C 11.933594 -2.472656 12.042969 -2.570312 12.113281 -2.683594 C 12.175781 -2.785156 12.207031 -2.902344 12.207031 -3.03125 C 12.207031 -3.105469 12.203125 -3.167969 12.191406 -3.210938 L 12.195312 -3.207031 C 12.164062 -3.261719 12.132812 -3.300781 12.109375 -3.328125 C 12.101562 -3.332031 12.097656 -3.335938 12.097656 -3.335938 C 12.097656 -3.335938 12.097656 -3.335938 12.101562 -3.332031 C 12.085938 -3.34375 12.074219 -3.347656 12.066406 -3.355469 C 12.070312 -3.351562 12.082031 -3.347656 12.097656 -3.34375 C 12.179688 -3.316406 12.273438 -3.300781 12.378906 -3.300781 C 12.738281 -3.300781 13.066406 -3.386719 13.367188 -3.558594 C 13.539062 -3.65625 13.679688 -3.773438 13.796875 -3.90625 C 13.730469 -3.832031 13.613281 -3.679688 13.445312 -3.449219 C 13.003906 -2.832031 12.585938 -2.339844 12.199219 -1.976562 C 11.851562 -1.648438 11.46875 -1.398438 11.046875 -1.222656 C 10.605469 -1.039062 10.140625 -0.945312 9.652344 -0.945312 C 8.503906 -0.945312 7.46875 -1.472656 6.539062 -2.523438 L 4.691406 -4.621094 L 12.046875 -8.992188 C 12.5 -9.257812 12.796875 -9.484375 12.941406 -9.671875 C 12.949219 -9.683594 12.953125 -9.722656 12.953125 -9.792969 C 12.953125 -9.761719 12.957031 -9.734375 12.96875 -9.710938 C 12.96875 -9.703125 12.96875 -9.699219 12.96875 -9.699219 C 12.96875 -9.707031 12.960938 -9.714844 12.953125 -9.726562 C 12.902344 -9.804688 12.820312 -9.875 12.703125 -9.941406 C 12.613281 -9.992188 12.511719 -10.015625 12.402344 -10.015625 Z M 12.402344 -10.015625 "/></g></g><g style="fill:#1d794c;fill-opacity:1;"><g transform="translate(66.763217, 21.46761)"><path style="stroke:none" d="M 6.132812 -14.652344 C 7.582031 -14.652344 8.730469 -14.304688 9.578125 -13.617188 C 10.070312 -13.214844 10.445312 -12.730469 10.699219 -12.164062 C 10.941406 -11.628906 11.058594 -11.050781 11.058594 -10.421875 C 11.058594 -9.8125 10.964844 -9.226562 10.777344 -8.664062 L 8.582031 -9.394531 L 10.792969 -8.714844 L 8.648438 -1.742188 L 6.433594 -2.425781 L 8.683594 -1.863281 C 8.679688 -1.851562 8.679688 -1.84375 8.675781 -1.835938 C 8.679688 -1.863281 8.683594 -1.894531 8.683594 -1.933594 C 8.683594 -2.199219 8.589844 -2.46875 8.410156 -2.742188 C 8.347656 -2.835938 8.289062 -2.902344 8.230469 -2.949219 L 8.34375 -2.859375 L 8.445312 -2.757812 C 8.664062 -2.539062 8.835938 -2.332031 8.96875 -2.136719 C 9.210938 -1.773438 9.351562 -1.371094 9.390625 -0.933594 C 9.417969 -0.605469 9.386719 -0.273438 9.292969 0.0546875 L 9.265625 0.152344 L 9.226562 0.25 C 9.0625 0.675781 8.816406 1.046875 8.484375 1.359375 C 8.191406 1.636719 7.851562 1.855469 7.457031 2.011719 C 6.949219 2.214844 6.304688 2.316406 5.527344 2.316406 L 0.210938 2.316406 C -0.6875 2.316406 -1.429688 2.109375 -2.015625 1.691406 C -2.507812 1.34375 -2.851562 0.894531 -3.046875 0.347656 C -3.242188 -0.207031 -3.257812 -0.773438 -3.089844 -1.359375 L -3.078125 -1.40625 L -3.0625 -1.457031 C -2.804688 -2.230469 -2.269531 -2.832031 -1.457031 -3.261719 C -1.457031 -3.261719 -1.453125 -3.261719 -1.449219 -3.265625 C -1.449219 -3.265625 -1.453125 -3.261719 -1.453125 -3.261719 C -1.46875 -3.25 -1.488281 -3.234375 -1.503906 -3.214844 C -1.578125 -3.136719 -1.628906 -3.0625 -1.660156 -3 C -1.648438 -3.019531 -1.636719 -3.058594 -1.617188 -3.121094 L 0.425781 -9.910156 L 0.4375 -9.941406 C 0.402344 -9.84375 0.386719 -9.714844 0.386719 -9.558594 C 0.386719 -9.203125 0.507812 -8.871094 0.75 -8.554688 C 0.796875 -8.492188 0.84375 -8.441406 0.890625 -8.398438 C 0.902344 -8.390625 0.910156 -8.382812 0.914062 -8.378906 C 0.914062 -8.378906 0.914062 -8.382812 0.910156 -8.382812 L 0.847656 -8.425781 L 0.789062 -8.472656 C 0.449219 -8.746094 0.179688 -9.03125 -0.015625 -9.324219 C -0.277344 -9.714844 -0.421875 -10.148438 -0.453125 -10.628906 C -0.472656 -10.964844 -0.433594 -11.304688 -0.332031 -11.648438 L 1.886719 -10.980469 L -0.355469 -11.566406 C -0.15625 -12.328125 0.320312 -12.953125 1.074219 -13.433594 C 1.496094 -13.707031 2.03125 -13.941406 2.675781 -14.140625 C 3.785156 -14.480469 4.9375 -14.652344 6.132812 -14.652344 Z M 6.132812 -10.015625 C 5.398438 -10.015625 4.703125 -9.914062 4.039062 -9.710938 C 3.796875 -9.636719 3.644531 -9.578125 3.578125 -9.535156 C 3.644531 -9.578125 3.710938 -9.640625 3.785156 -9.722656 C 3.945312 -9.914062 4.0625 -10.136719 4.128906 -10.398438 L 4.121094 -10.355469 L 4.109375 -10.316406 C 4.164062 -10.503906 4.183594 -10.703125 4.171875 -10.917969 C 4.148438 -11.269531 4.039062 -11.59375 3.839844 -11.894531 C 3.785156 -11.972656 3.730469 -12.042969 3.679688 -12.09375 C 3.671875 -12.101562 3.667969 -12.105469 3.664062 -12.109375 C 3.667969 -12.105469 3.675781 -12.097656 3.6875 -12.089844 L 2.238281 -10.28125 L 3.566406 -12.179688 C 3.917969 -11.9375 4.203125 -11.667969 4.425781 -11.378906 C 4.824219 -10.863281 5.023438 -10.253906 5.023438 -9.558594 C 5.023438 -9.214844 4.957031 -8.855469 4.832031 -8.476562 L 2.632812 -9.210938 L 4.851562 -8.542969 L 2.832031 -1.824219 C 2.621094 -1.105469 2.320312 -0.53125 1.925781 -0.0976562 C 1.589844 0.273438 1.183594 0.582031 0.710938 0.835938 C 0.785156 0.796875 0.863281 0.734375 0.945312 0.652344 C 1.121094 0.476562 1.25 0.261719 1.335938 0.0117188 L -0.863281 -0.722656 L 1.367188 -0.0859375 C 1.46875 -0.453125 1.457031 -0.824219 1.320312 -1.203125 C 1.1875 -1.578125 0.96875 -1.871094 0.664062 -2.089844 C 0.503906 -2.203125 0.347656 -2.277344 0.191406 -2.3125 C 0.167969 -2.316406 0.15625 -2.320312 0.144531 -2.320312 C 0.160156 -2.316406 0.179688 -2.316406 0.210938 -2.316406 L 5.527344 -2.316406 C 5.667969 -2.316406 5.777344 -2.324219 5.855469 -2.332031 C 5.863281 -2.332031 5.871094 -2.335938 5.875 -2.335938 C 5.875 -2.335938 5.871094 -2.335938 5.867188 -2.332031 C 5.828125 -2.324219 5.785156 -2.308594 5.738281 -2.292969 C 5.578125 -2.226562 5.429688 -2.132812 5.292969 -2 C 5.117188 -1.835938 4.988281 -1.640625 4.902344 -1.414062 L 7.066406 -0.582031 L 4.835938 -1.21875 C 4.773438 -1 4.753906 -0.769531 4.773438 -0.53125 C 4.804688 -0.179688 4.917969 0.140625 5.113281 0.433594 C 5.144531 0.480469 5.171875 0.519531 5.199219 0.550781 C 5.195312 0.546875 5.1875 0.535156 5.167969 0.519531 L 6.808594 -1.121094 L 5.386719 0.710938 C 5.046875 0.445312 4.769531 0.152344 4.554688 -0.171875 C 4.214844 -0.675781 4.046875 -1.265625 4.046875 -1.933594 C 4.046875 -2.265625 4.09375 -2.617188 4.1875 -2.988281 L 4.203125 -3.046875 L 6.375 -10.101562 L 6.382812 -10.128906 C 6.410156 -10.21875 6.425781 -10.316406 6.425781 -10.421875 C 6.425781 -10.386719 6.441406 -10.332031 6.472656 -10.265625 C 6.519531 -10.164062 6.578125 -10.085938 6.648438 -10.023438 C 6.691406 -9.992188 6.726562 -9.96875 6.761719 -9.953125 L 6.761719 -9.949219 C 6.753906 -9.953125 6.738281 -9.957031 6.722656 -9.960938 C 6.582031 -10 6.386719 -10.015625 6.132812 -10.015625 Z M 7.695312 -19.804688 C 8.289062 -19.804688 8.847656 -19.699219 9.375 -19.496094 C 9.917969 -19.28125 10.40625 -18.964844 10.832031 -18.546875 C 11.257812 -18.128906 11.582031 -17.652344 11.804688 -17.121094 C 12.023438 -16.59375 12.132812 -16.03125 12.132812 -15.433594 C 12.132812 -14.640625 11.933594 -13.875 11.539062 -13.144531 C 11.136719 -12.402344 10.574219 -11.800781 9.855469 -11.34375 C 9.09375 -10.863281 8.257812 -10.621094 7.34375 -10.621094 C 6.75 -10.621094 6.191406 -10.726562 5.667969 -10.9375 C 5.128906 -11.15625 4.648438 -11.472656 4.226562 -11.894531 C 3.8125 -12.308594 3.496094 -12.78125 3.273438 -13.308594 C 3.058594 -13.824219 2.945312 -14.371094 2.929688 -14.953125 L 2.929688 -15.015625 C 2.929688 -15.789062 3.121094 -16.535156 3.503906 -17.253906 C 3.886719 -17.980469 4.429688 -18.578125 5.125 -19.042969 C 5.886719 -19.550781 6.746094 -19.804688 7.695312 -19.804688 Z M 7.695312 -15.167969 C 7.679688 -15.167969 7.667969 -15.167969 7.65625 -15.167969 L 7.660156 -15.167969 C 7.671875 -15.171875 7.6875 -15.179688 7.695312 -15.183594 C 7.648438 -15.152344 7.613281 -15.121094 7.597656 -15.082031 C 7.578125 -15.050781 7.566406 -15.027344 7.5625 -15.007812 C 7.5625 -15.007812 7.5625 -15.011719 7.5625 -15.015625 L 5.246094 -15.015625 L 7.5625 -15.074219 C 7.5625 -15.0625 7.5625 -15.058594 7.5625 -15.054688 C 7.5625 -15.066406 7.558594 -15.078125 7.550781 -15.09375 C 7.535156 -15.128906 7.519531 -15.15625 7.503906 -15.171875 C 7.476562 -15.199219 7.441406 -15.21875 7.394531 -15.238281 C 7.375 -15.246094 7.355469 -15.253906 7.335938 -15.257812 C 7.332031 -15.257812 7.332031 -15.257812 7.328125 -15.257812 C 7.332031 -15.257812 7.339844 -15.257812 7.34375 -15.257812 C 7.363281 -15.257812 7.375 -15.257812 7.378906 -15.257812 L 7.375 -15.257812 C 7.414062 -15.285156 7.445312 -15.3125 7.460938 -15.347656 C 7.488281 -15.390625 7.5 -15.421875 7.5 -15.433594 C 7.5 -15.414062 7.507812 -15.382812 7.523438 -15.339844 C 7.542969 -15.292969 7.566406 -15.257812 7.585938 -15.238281 C 7.609375 -15.214844 7.640625 -15.195312 7.679688 -15.179688 C 7.699219 -15.175781 7.710938 -15.171875 7.722656 -15.167969 C 7.71875 -15.167969 7.710938 -15.167969 7.695312 -15.167969 Z M 7.695312 -15.167969 "/></g></g><g style="fill:#1d794c;fill-opacity:1;"><g transform="translate(75.29636, 21.46761)"><path style="stroke:none" d="M 9.511719 -19.546875 C 11.609375 -19.546875 13.257812 -19.183594 14.457031 -18.453125 C 15.164062 -18.023438 15.714844 -17.515625 16.113281 -16.921875 C 16.582031 -16.222656 16.820312 -15.457031 16.820312 -14.617188 C 16.820312 -13.933594 16.664062 -13.304688 16.359375 -12.734375 C 16.050781 -12.160156 15.605469 -11.6875 15.03125 -11.3125 C 14.15625 -10.742188 13.09375 -10.460938 11.84375 -10.460938 C 10.527344 -10.460938 9.449219 -10.832031 8.605469 -11.578125 C 8.160156 -11.972656 7.816406 -12.433594 7.578125 -12.953125 C 7.339844 -13.480469 7.21875 -14.042969 7.21875 -14.640625 C 7.21875 -15.375 7.417969 -16.097656 7.820312 -16.808594 L 9.839844 -15.667969 L 9.839844 -13.351562 C 9.824219 -13.351562 9.8125 -13.351562 9.808594 -13.347656 C 9.816406 -13.351562 9.828125 -13.355469 9.84375 -13.359375 C 9.90625 -13.375 9.972656 -13.410156 10.035156 -13.453125 C 10.121094 -13.515625 10.183594 -13.582031 10.222656 -13.640625 C 10.207031 -13.617188 10.1875 -13.5625 10.160156 -13.480469 L 7.949219 -14.175781 L 10.1875 -13.566406 C 10.148438 -13.421875 10.128906 -13.308594 10.128906 -13.21875 C 10.128906 -13.203125 10.128906 -13.191406 10.128906 -13.183594 C 10.128906 -13.195312 10.125 -13.214844 10.121094 -13.234375 C 10.09375 -13.347656 10.042969 -13.460938 9.96875 -13.582031 C 9.824219 -13.8125 9.625 -14 9.367188 -14.140625 C 9.117188 -14.277344 8.851562 -14.347656 8.582031 -14.347656 L 9.957031 -14.347656 C 10.796875 -14.347656 11.503906 -14.171875 12.078125 -13.816406 C 12.53125 -13.539062 12.882812 -13.171875 13.128906 -12.714844 C 13.367188 -12.277344 13.484375 -11.800781 13.484375 -11.285156 C 13.484375 -11.03125 13.445312 -10.75 13.371094 -10.441406 C 13.238281 -9.960938 13.039062 -9.535156 12.769531 -9.175781 C 12.488281 -8.796875 12.144531 -8.488281 11.734375 -8.242188 C 11.082031 -7.855469 10.257812 -7.660156 9.257812 -7.660156 L 8.558594 -7.660156 L 8.558594 -9.980469 L 10.773438 -9.300781 L 8.464844 -1.746094 L 6.25 -2.425781 L 8.496094 -1.863281 C 8.492188 -1.851562 8.492188 -1.84375 8.488281 -1.835938 C 8.492188 -1.863281 8.496094 -1.894531 8.496094 -1.933594 C 8.496094 -2.199219 8.40625 -2.46875 8.222656 -2.742188 C 8.160156 -2.835938 8.101562 -2.902344 8.042969 -2.949219 L 8.15625 -2.859375 L 8.261719 -2.757812 C 8.476562 -2.539062 8.652344 -2.332031 8.78125 -2.136719 C 9.027344 -1.773438 9.164062 -1.371094 9.203125 -0.933594 C 9.234375 -0.605469 9.199219 -0.273438 9.105469 0.0546875 L 9.078125 0.152344 L 9.039062 0.25 C 8.875 0.675781 8.628906 1.046875 8.300781 1.359375 C 8.007812 1.636719 7.664062 1.855469 7.273438 2.011719 C 6.761719 2.214844 6.117188 2.316406 5.339844 2.316406 L 0.0234375 2.316406 C -0.871094 2.316406 -1.613281 2.109375 -2.203125 1.691406 C -2.695312 1.34375 -3.039062 0.894531 -3.234375 0.347656 C -3.429688 -0.207031 -3.445312 -0.773438 -3.277344 -1.359375 L -3.261719 -1.40625 L -3.246094 -1.457031 C -2.988281 -2.230469 -2.453125 -2.832031 -1.644531 -3.261719 C -1.640625 -3.261719 -1.640625 -3.261719 -1.636719 -3.265625 C -1.636719 -3.265625 -1.636719 -3.261719 -1.640625 -3.261719 C -1.65625 -3.25 -1.671875 -3.234375 -1.691406 -3.214844 C -1.761719 -3.136719 -1.8125 -3.0625 -1.84375 -3 C -1.835938 -3.019531 -1.824219 -3.058594 -1.804688 -3.121094 L 0.03125 -9.144531 L 0.0390625 -9.171875 C 0.0390625 -9.167969 0.0390625 -9.164062 0.0390625 -9.164062 C 0.0390625 -9.113281 0.046875 -9.050781 0.0664062 -8.976562 C 0.109375 -8.816406 0.1875 -8.664062 0.292969 -8.519531 C 0.273438 -8.546875 0.207031 -8.605469 0.0898438 -8.703125 C -0.1875 -8.929688 -0.414062 -9.148438 -0.589844 -9.355469 C -1.042969 -9.890625 -1.269531 -10.507812 -1.269531 -11.214844 L 1.050781 -11.214844 L -1.265625 -11.09375 C -1.292969 -11.648438 -1.191406 -12.160156 -0.957031 -12.628906 C -0.6875 -13.164062 -0.289062 -13.578125 0.246094 -13.875 C 0.605469 -14.070312 1.03125 -14.207031 1.527344 -14.277344 C 1.851562 -14.324219 2.230469 -14.347656 2.65625 -14.347656 L 3.242188 -14.347656 L 3.242188 -12.03125 L 1.007812 -11.40625 C 0.84375 -12 0.761719 -12.597656 0.761719 -13.195312 C 0.761719 -13.835938 0.871094 -14.484375 1.089844 -15.140625 L 1.101562 -15.179688 L 1.117188 -15.21875 C 1.609375 -16.542969 2.589844 -17.613281 4.054688 -18.4375 C 5.378906 -19.175781 7.199219 -19.546875 9.511719 -19.546875 Z M 9.511719 -14.914062 C 8.703125 -14.914062 8.007812 -14.859375 7.425781 -14.75 C 6.953125 -14.660156 6.585938 -14.539062 6.320312 -14.390625 C 5.84375 -14.125 5.554688 -13.859375 5.457031 -13.601562 L 3.289062 -14.410156 L 5.484375 -13.675781 C 5.425781 -13.496094 5.394531 -13.335938 5.394531 -13.195312 C 5.394531 -13.019531 5.421875 -12.839844 5.472656 -12.65625 L 6.296875 -9.714844 L 2.65625 -9.714844 C 2.449219 -9.714844 2.292969 -9.707031 2.1875 -9.691406 C 2.179688 -9.6875 2.171875 -9.6875 2.167969 -9.6875 C 2.179688 -9.691406 2.191406 -9.691406 2.203125 -9.695312 C 2.292969 -9.722656 2.386719 -9.761719 2.484375 -9.816406 C 2.792969 -9.984375 3.027344 -10.234375 3.1875 -10.558594 C 3.320312 -10.816406 3.375 -11.078125 3.363281 -11.335938 L 3.367188 -11.277344 L 3.367188 -11.214844 C 3.367188 -11.640625 3.226562 -12.019531 2.945312 -12.351562 C 2.933594 -12.363281 2.925781 -12.375 2.917969 -12.382812 C 2.917969 -12.382812 2.917969 -12.378906 2.925781 -12.375 C 2.949219 -12.351562 2.988281 -12.320312 3.035156 -12.28125 C 3.445312 -11.941406 3.773438 -11.605469 4.019531 -11.273438 C 4.453125 -10.6875 4.671875 -9.984375 4.671875 -9.164062 C 4.671875 -8.664062 4.59375 -8.179688 4.4375 -7.707031 L 2.238281 -8.441406 L 4.453125 -7.765625 L 2.644531 -1.824219 C 2.433594 -1.105469 2.132812 -0.53125 1.738281 -0.0976562 C 1.402344 0.273438 0.996094 0.582031 0.523438 0.835938 C 0.597656 0.796875 0.675781 0.734375 0.757812 0.652344 C 0.933594 0.476562 1.066406 0.261719 1.148438 0.0117188 L -1.050781 -0.722656 L 1.179688 -0.0859375 C 1.285156 -0.453125 1.269531 -0.824219 1.132812 -1.203125 C 1 -1.578125 0.78125 -1.871094 0.476562 -2.089844 C 0.316406 -2.203125 0.160156 -2.277344 0.00390625 -2.3125 C -0.015625 -2.316406 -0.03125 -2.320312 -0.0429688 -2.320312 C -0.0273438 -2.316406 -0.00390625 -2.316406 0.0234375 -2.316406 L 5.339844 -2.316406 C 5.480469 -2.316406 5.589844 -2.324219 5.667969 -2.332031 C 5.679688 -2.332031 5.683594 -2.335938 5.691406 -2.335938 C 5.6875 -2.335938 5.683594 -2.335938 5.679688 -2.332031 C 5.640625 -2.324219 5.597656 -2.308594 5.550781 -2.292969 C 5.390625 -2.226562 5.246094 -2.132812 5.105469 -2 C 4.933594 -1.835938 4.800781 -1.640625 4.714844 -1.414062 L 6.878906 -0.582031 L 4.648438 -1.21875 C 4.585938 -1 4.566406 -0.769531 4.585938 -0.53125 C 4.617188 -0.179688 4.730469 0.140625 4.925781 0.433594 C 4.957031 0.480469 4.988281 0.519531 5.011719 0.550781 C 5.007812 0.546875 5 0.535156 4.984375 0.519531 L 6.621094 -1.121094 L 5.199219 0.710938 C 4.859375 0.445312 4.582031 0.152344 4.367188 -0.171875 C 4.03125 -0.675781 3.863281 -1.265625 3.863281 -1.933594 C 3.863281 -2.265625 3.90625 -2.617188 4 -2.988281 L 4.015625 -3.042969 L 6.84375 -12.296875 L 9.257812 -12.296875 C 9.390625 -12.296875 9.492188 -12.304688 9.5625 -12.316406 C 9.515625 -12.308594 9.449219 -12.277344 9.367188 -12.226562 C 9.242188 -12.15625 9.136719 -12.058594 9.046875 -11.9375 C 8.96875 -11.832031 8.910156 -11.707031 8.875 -11.566406 C 8.875 -11.574219 8.875 -11.578125 8.875 -11.578125 C 8.875 -11.570312 8.871094 -11.5625 8.871094 -11.550781 C 8.859375 -11.46875 8.851562 -11.382812 8.851562 -11.285156 C 8.851562 -11.015625 8.917969 -10.757812 9.054688 -10.507812 C 9.199219 -10.238281 9.398438 -10.023438 9.652344 -9.871094 C 9.78125 -9.789062 9.90625 -9.738281 10.019531 -9.714844 C 10.027344 -9.710938 10.035156 -9.710938 10.042969 -9.710938 C 10.042969 -9.710938 10.039062 -9.710938 10.035156 -9.710938 C 10.015625 -9.710938 9.988281 -9.714844 9.957031 -9.714844 L 8.582031 -9.714844 C 8.058594 -9.714844 7.574219 -9.835938 7.132812 -10.078125 C 6.6875 -10.324219 6.328125 -10.667969 6.046875 -11.109375 C 5.679688 -11.699219 5.492188 -12.402344 5.492188 -13.21875 C 5.492188 -13.722656 5.566406 -14.242188 5.714844 -14.785156 L 5.738281 -14.871094 C 6.0625 -15.902344 6.589844 -16.679688 7.3125 -17.207031 C 8.03125 -17.726562 8.871094 -17.984375 9.839844 -17.984375 L 13.8125 -17.984375 L 11.855469 -14.527344 C 11.847656 -14.507812 11.839844 -14.492188 11.832031 -14.480469 L 11.835938 -14.488281 C 11.847656 -14.53125 11.851562 -14.582031 11.851562 -14.640625 C 11.851562 -14.714844 11.835938 -14.792969 11.796875 -14.875 C 11.761719 -14.953125 11.722656 -15.011719 11.675781 -15.046875 C 11.632812 -15.085938 11.597656 -15.113281 11.566406 -15.121094 C 11.625 -15.101562 11.714844 -15.09375 11.84375 -15.09375 C 12.050781 -15.09375 12.222656 -15.109375 12.359375 -15.144531 C 12.429688 -15.164062 12.476562 -15.179688 12.503906 -15.195312 C 12.417969 -15.140625 12.34375 -15.054688 12.277344 -14.933594 C 12.214844 -14.816406 12.183594 -14.714844 12.183594 -14.617188 C 12.183594 -14.511719 12.210938 -14.417969 12.269531 -14.335938 C 12.273438 -14.332031 12.273438 -14.324219 12.277344 -14.324219 C 12.269531 -14.332031 12.261719 -14.339844 12.25 -14.351562 C 12.203125 -14.394531 12.136719 -14.441406 12.050781 -14.492188 C 11.867188 -14.605469 11.59375 -14.695312 11.234375 -14.769531 C 10.765625 -14.863281 10.191406 -14.914062 9.511719 -14.914062 Z M 9.511719 -14.914062 "/></g></g><g style="fill:#ffeedc;fill-opacity:1;"><g transform="translate(14.421952, 21.46761)"><path style="stroke:none" d="M 21.890625 -9.015625 C 21.890625 -7.640625 21.40625 -6.226562 20.4375 -4.78125 C 19.476562 -3.332031 18.265625 -2.140625 16.796875 -1.203125 C 15.328125 -0.265625 13.882812 0.203125 12.46875 0.203125 C 11.351562 0.203125 10.40625 0.0078125 9.625 -0.375 C 8.851562 -0.757812 8.347656 -1.316406 8.109375 -2.046875 C 7.535156 -1.347656 6.898438 -0.820312 6.203125 -0.46875 C 5.503906 -0.113281 4.773438 0.0625 4.015625 0.0625 C 2.953125 0.0625 2.085938 -0.191406 1.421875 -0.703125 C 0.765625 -1.222656 0.4375 -1.988281 0.4375 -3 C 0.4375 -3.53125 0.523438 -4.078125 0.703125 -4.640625 L 2 -9.203125 C 2.03125 -9.328125 2.046875 -9.421875 2.046875 -9.484375 C 2.046875 -9.640625 2.003906 -9.769531 1.921875 -9.875 C 1.847656 -9.988281 1.742188 -10.109375 1.609375 -10.234375 C 1.378906 -10.429688 1.265625 -10.609375 1.265625 -10.765625 C 1.242188 -10.984375 1.375 -11.21875 1.65625 -11.46875 C 1.9375 -11.71875 2.328125 -11.921875 2.828125 -12.078125 C 3.335938 -12.242188 3.910156 -12.328125 4.546875 -12.328125 C 5.585938 -12.328125 6.398438 -12.070312 6.984375 -11.5625 C 7.566406 -11.0625 7.859375 -10.410156 7.859375 -9.609375 C 7.859375 -9.242188 7.796875 -8.851562 7.671875 -8.4375 L 6.484375 -4.46875 C 6.421875 -4.257812 6.390625 -4.113281 6.390625 -4.03125 C 6.390625 -3.832031 6.445312 -3.675781 6.5625 -3.5625 C 6.675781 -3.457031 6.835938 -3.40625 7.046875 -3.40625 C 7.316406 -3.40625 7.550781 -3.5 7.75 -3.6875 C 7.945312 -3.882812 8.140625 -4.203125 8.328125 -4.640625 L 9.65625 -9.203125 C 9.6875 -9.328125 9.703125 -9.421875 9.703125 -9.484375 C 9.703125 -9.640625 9.660156 -9.769531 9.578125 -9.875 C 9.503906 -9.988281 9.394531 -10.109375 9.25 -10.234375 C 9.019531 -10.429688 8.90625 -10.609375 8.90625 -10.765625 C 8.882812 -10.984375 9.015625 -11.21875 9.296875 -11.46875 C 9.578125 -11.71875 9.96875 -11.921875 10.46875 -12.078125 C 10.976562 -12.242188 11.550781 -12.328125 12.1875 -12.328125 C 13.25 -12.328125 14.066406 -12.078125 14.640625 -11.578125 C 15.210938 -11.085938 15.5 -10.429688 15.5 -9.609375 C 15.5 -9.273438 15.4375 -8.882812 15.3125 -8.4375 L 13.796875 -3.453125 C 13.765625 -3.367188 13.75 -3.25 13.75 -3.09375 C 13.75 -2.894531 13.816406 -2.738281 13.953125 -2.625 C 14.097656 -2.519531 14.296875 -2.46875 14.546875 -2.46875 C 14.890625 -2.46875 15.289062 -2.617188 15.75 -2.921875 C 16.207031 -3.222656 16.65625 -3.65625 17.09375 -4.21875 C 17.539062 -4.789062 17.90625 -5.46875 18.1875 -6.25 C 17.5625 -6.789062 17.117188 -7.328125 16.859375 -7.859375 C 16.609375 -8.390625 16.484375 -8.929688 16.484375 -9.484375 C 16.484375 -10.273438 16.695312 -10.945312 17.125 -11.5 C 17.5625 -12.050781 18.191406 -12.328125 19.015625 -12.328125 C 19.847656 -12.328125 20.535156 -12.03125 21.078125 -11.4375 C 21.617188 -10.851562 21.890625 -10.046875 21.890625 -9.015625 Z M 21.890625 -9.015625 "/></g></g><g style="fill:#ffeedc;fill-opacity:1;"><g transform="translate(36.034582, 21.46761)"><path style="stroke:none" d="M 9.015625 -12.328125 C 11.128906 -12.328125 12.6875 -11.898438 13.6875 -11.046875 C 14.695312 -10.191406 15.203125 -9.070312 15.203125 -7.6875 C 15.203125 -7.226562 15.140625 -6.707031 15.015625 -6.125 C 14.722656 -4.851562 14.171875 -3.738281 13.359375 -2.78125 C 12.546875 -1.832031 11.550781 -1.097656 10.375 -0.578125 C 9.207031 -0.0546875 7.941406 0.203125 6.578125 0.203125 C 4.410156 0.203125 2.8125 -0.222656 1.78125 -1.078125 C 0.75 -1.941406 0.234375 -3.085938 0.234375 -4.515625 C 0.234375 -5.003906 0.296875 -5.539062 0.421875 -6.125 C 0.710938 -7.34375 1.273438 -8.421875 2.109375 -9.359375 C 2.941406 -10.296875 3.957031 -11.023438 5.15625 -11.546875 C 6.363281 -12.066406 7.648438 -12.328125 9.015625 -12.328125 Z M 8.953125 -10.25 C 8.628906 -10.25 8.28125 -9.957031 7.90625 -9.375 C 7.539062 -8.800781 7.113281 -7.703125 6.625 -6.078125 C 6.125 -4.460938 5.875 -3.332031 5.875 -2.6875 C 5.875 -2.34375 5.925781 -2.109375 6.03125 -1.984375 C 6.144531 -1.867188 6.296875 -1.8125 6.484375 -1.8125 C 6.804688 -1.78125 7.140625 -2.0625 7.484375 -2.65625 C 7.835938 -3.25 8.28125 -4.398438 8.8125 -6.109375 C 9.289062 -7.617188 9.53125 -8.710938 9.53125 -9.390625 C 9.53125 -9.722656 9.476562 -9.945312 9.375 -10.0625 C 9.28125 -10.1875 9.140625 -10.25 8.953125 -10.25 Z M 8.953125 -10.25 "/></g></g><g style="fill:#ffeedc;fill-opacity:1;"><g transform="translate(51.328956, 21.46761)"><path style="stroke:none" d="M 12.40625 -12.328125 C 12.914062 -12.328125 13.390625 -12.203125 13.828125 -11.953125 C 14.273438 -11.710938 14.625 -11.394531 14.875 -11 C 15.132812 -10.613281 15.265625 -10.210938 15.265625 -9.796875 C 15.265625 -9.203125 15.101562 -8.691406 14.78125 -8.265625 C 14.457031 -7.835938 13.9375 -7.414062 13.21875 -7 L 8.28125 -4.0625 C 8.738281 -3.53125 9.195312 -3.265625 9.65625 -3.265625 C 10.007812 -3.265625 10.328125 -3.394531 10.609375 -3.65625 C 10.890625 -3.925781 11.207031 -4.304688 11.5625 -4.796875 C 11.78125 -5.097656 11.941406 -5.3125 12.046875 -5.4375 C 12.160156 -5.5625 12.269531 -5.625 12.375 -5.625 C 12.65625 -5.625 12.960938 -5.519531 13.296875 -5.3125 C 13.628906 -5.113281 13.914062 -4.816406 14.15625 -4.421875 C 14.40625 -4.035156 14.53125 -3.570312 14.53125 -3.03125 C 14.53125 -2.46875 14.382812 -1.945312 14.09375 -1.46875 C 13.800781 -1 13.394531 -0.625 12.875 -0.34375 C 12.351562 -0.0703125 11.742188 0.0625 11.046875 0.0625 C 10.367188 0.0625 9.796875 -0.0546875 9.328125 -0.296875 C 8.859375 -0.535156 8.492188 -0.800781 8.234375 -1.09375 C 7.984375 -1.382812 7.734375 -1.734375 7.484375 -2.140625 C 7.285156 -2.503906 7.128906 -2.6875 7.015625 -2.6875 C 6.921875 -2.6875 6.820312 -2.628906 6.71875 -2.515625 C 6.625 -2.410156 6.484375 -2.222656 6.296875 -1.953125 C 5.878906 -1.347656 5.445312 -0.859375 5 -0.484375 C 4.5625 -0.117188 3.984375 0.0625 3.265625 0.0625 C 2.578125 0.0625 1.957031 -0.0546875 1.40625 -0.296875 C 0.851562 -0.546875 0.414062 -0.875 0.09375 -1.28125 C -0.21875 -1.695312 -0.375 -2.148438 -0.375 -2.640625 C -0.375 -3.492188 0.191406 -4.273438 1.328125 -4.984375 L 7.3125 -8.65625 C 7.050781 -8.976562 6.816406 -9.207031 6.609375 -9.34375 C 6.410156 -9.488281 6.195312 -9.5625 5.96875 -9.5625 C 5.675781 -9.5625 5.421875 -9.453125 5.203125 -9.234375 C 4.992188 -9.023438 4.78125 -8.738281 4.5625 -8.375 C 4.414062 -8.125 4.289062 -7.9375 4.1875 -7.8125 C 4.082031 -7.6875 3.96875 -7.625 3.84375 -7.625 C 3.363281 -7.625 2.941406 -7.796875 2.578125 -8.140625 C 2.222656 -8.484375 2.046875 -8.945312 2.046875 -9.53125 C 2.046875 -10.007812 2.164062 -10.460938 2.40625 -10.890625 C 2.65625 -11.328125 3 -11.675781 3.4375 -11.9375 C 3.882812 -12.195312 4.398438 -12.328125 4.984375 -12.328125 C 5.835938 -12.328125 6.5 -12.117188 6.96875 -11.703125 C 7.445312 -11.296875 7.875 -10.789062 8.25 -10.1875 C 8.46875 -9.84375 8.617188 -9.671875 8.703125 -9.671875 C 8.773438 -9.671875 8.859375 -9.722656 8.953125 -9.828125 C 9.054688 -9.929688 9.144531 -10.03125 9.21875 -10.125 C 9.289062 -10.226562 9.347656 -10.300781 9.390625 -10.34375 C 9.859375 -10.957031 10.3125 -11.441406 10.75 -11.796875 C 11.1875 -12.148438 11.738281 -12.328125 12.40625 -12.328125 Z M 12.40625 -12.328125 "/></g></g><g style="fill:#ffeedc;fill-opacity:1;"><g transform="translate(66.763217, 21.46761)"><path style="stroke:none" d="M 6.125 -12.328125 C 7.019531 -12.328125 7.675781 -12.15625 8.09375 -11.8125 C 8.519531 -11.476562 8.734375 -11.015625 8.734375 -10.421875 C 8.734375 -10.066406 8.679688 -9.722656 8.578125 -9.390625 L 6.421875 -2.421875 C 6.378906 -2.234375 6.359375 -2.070312 6.359375 -1.9375 C 6.359375 -1.726562 6.394531 -1.566406 6.46875 -1.453125 C 6.550781 -1.335938 6.660156 -1.226562 6.796875 -1.125 C 6.910156 -1.007812 6.988281 -0.914062 7.03125 -0.84375 C 7.082031 -0.78125 7.09375 -0.691406 7.0625 -0.578125 C 6.976562 -0.378906 6.816406 -0.234375 6.578125 -0.140625 C 6.347656 -0.046875 5.992188 0 5.515625 0 L 0.203125 0 C -0.203125 0 -0.5 -0.0625 -0.6875 -0.1875 C -0.875 -0.320312 -0.9375 -0.5 -0.875 -0.71875 C -0.8125 -0.90625 -0.644531 -1.070312 -0.375 -1.21875 C -0.144531 -1.34375 0.046875 -1.488281 0.203125 -1.65625 C 0.359375 -1.820312 0.488281 -2.09375 0.59375 -2.46875 L 2.625 -9.203125 C 2.675781 -9.347656 2.703125 -9.46875 2.703125 -9.5625 C 2.703125 -9.726562 2.660156 -9.863281 2.578125 -9.96875 C 2.503906 -10.070312 2.390625 -10.175781 2.234375 -10.28125 C 2.078125 -10.40625 1.96875 -10.515625 1.90625 -10.609375 C 1.84375 -10.703125 1.832031 -10.828125 1.875 -10.984375 C 1.96875 -11.335938 2.457031 -11.648438 3.34375 -11.921875 C 4.226562 -12.191406 5.15625 -12.328125 6.125 -12.328125 Z M 7.6875 -17.484375 C 8.289062 -17.484375 8.789062 -17.285156 9.1875 -16.890625 C 9.59375 -16.492188 9.796875 -16.007812 9.796875 -15.4375 C 9.796875 -15.03125 9.691406 -14.628906 9.484375 -14.234375 C 9.273438 -13.847656 8.976562 -13.535156 8.59375 -13.296875 C 8.21875 -13.054688 7.796875 -12.9375 7.328125 -12.9375 C 6.742188 -12.9375 6.253906 -13.132812 5.859375 -13.53125 C 5.460938 -13.925781 5.253906 -14.421875 5.234375 -15.015625 C 5.234375 -15.398438 5.332031 -15.78125 5.53125 -16.15625 C 5.738281 -16.539062 6.023438 -16.859375 6.390625 -17.109375 C 6.765625 -17.359375 7.195312 -17.484375 7.6875 -17.484375 Z M 7.6875 -17.484375 "/></g></g><g style="fill:#ffeedc;fill-opacity:1;"><g transform="translate(75.29636, 21.46761)"><path style="stroke:none" d="M 9.515625 -17.234375 C 11.171875 -17.234375 12.414062 -16.976562 13.25 -16.46875 C 14.082031 -15.96875 14.5 -15.347656 14.5 -14.609375 C 14.5 -14.023438 14.253906 -13.570312 13.765625 -13.25 C 13.273438 -12.9375 12.632812 -12.78125 11.84375 -12.78125 C 11.113281 -12.78125 10.546875 -12.957031 10.140625 -13.3125 C 9.734375 -13.664062 9.53125 -14.109375 9.53125 -14.640625 C 9.53125 -14.960938 9.632812 -15.304688 9.84375 -15.671875 C 9.375 -15.671875 8.984375 -15.554688 8.671875 -15.328125 C 8.359375 -15.097656 8.117188 -14.710938 7.953125 -14.171875 C 7.859375 -13.828125 7.8125 -13.507812 7.8125 -13.21875 C 7.8125 -12.84375 7.875 -12.550781 8 -12.34375 C 8.132812 -12.132812 8.328125 -12.03125 8.578125 -12.03125 L 9.953125 -12.03125 C 10.765625 -12.03125 11.171875 -11.78125 11.171875 -11.28125 C 11.171875 -11.21875 11.15625 -11.125 11.125 -11 C 11.03125 -10.65625 10.835938 -10.398438 10.546875 -10.234375 C 10.265625 -10.066406 9.832031 -9.984375 9.25 -9.984375 L 8.5625 -9.984375 L 6.25 -2.421875 C 6.195312 -2.234375 6.171875 -2.070312 6.171875 -1.9375 C 6.171875 -1.726562 6.207031 -1.566406 6.28125 -1.453125 C 6.363281 -1.335938 6.476562 -1.226562 6.625 -1.125 C 6.726562 -1.007812 6.800781 -0.914062 6.84375 -0.84375 C 6.894531 -0.78125 6.90625 -0.691406 6.875 -0.578125 C 6.800781 -0.378906 6.644531 -0.234375 6.40625 -0.140625 C 6.175781 -0.046875 5.820312 0 5.34375 0 L 0.015625 0 C -0.378906 0 -0.671875 -0.0625 -0.859375 -0.1875 C -1.046875 -0.320312 -1.109375 -0.5 -1.046875 -0.71875 C -0.984375 -0.90625 -0.820312 -1.070312 -0.5625 -1.21875 C -0.320312 -1.34375 -0.128906 -1.488281 0.015625 -1.65625 C 0.171875 -1.820312 0.304688 -2.09375 0.421875 -2.46875 L 2.234375 -8.4375 C 2.316406 -8.664062 2.359375 -8.90625 2.359375 -9.15625 C 2.359375 -9.46875 2.289062 -9.710938 2.15625 -9.890625 C 2.019531 -10.078125 1.820312 -10.273438 1.5625 -10.484375 C 1.394531 -10.628906 1.265625 -10.75 1.171875 -10.84375 C 1.085938 -10.945312 1.046875 -11.070312 1.046875 -11.21875 C 1.035156 -11.507812 1.140625 -11.71875 1.359375 -11.84375 C 1.585938 -11.96875 2.019531 -12.03125 2.65625 -12.03125 L 3.234375 -12.03125 C 3.128906 -12.414062 3.078125 -12.800781 3.078125 -13.1875 C 3.078125 -13.582031 3.144531 -13.988281 3.28125 -14.40625 C 3.582031 -15.195312 4.21875 -15.863281 5.1875 -16.40625 C 6.15625 -16.957031 7.597656 -17.234375 9.515625 -17.234375 Z M 9.515625 -17.234375 "/></g></g></g></svg>